# xmcd CD database file
#
# Track frame offsets:
#	150
#	2411
#	11433
#	23492
#	35183
#	43635
#	54801
#	67887
#	76706
#	89374
#	107240
#	119249
#	129201
#	142326
#	157136
#	170316
#	184951
#	195802
#	207704
#	221710
#	227156
#	248526
#	254448
#	255424
#	261960
#	278684
#	293987
#	308666
#	321781
#
# Disc length: 4442 seconds
#
# Revision: 0
# Processed by: cddbd v1.5.1PL2 Copyright (c) Steve Scherf et al.
# Submitted via: CDex 1.51
#
DISCID=9711581d
DTITLE=Various Artist - A MESSAGE FROM THE MAN 2
DYEAR=2006
DGENRE=Jazz
TTITLE0=Ryuhei The Man
TTITLE1=Dap-Kings
TTITLE2=Jurassic 5
TTITLE3=Jurassic 5
TTITLE4=Breakestra Feat. Chali 2 Na and Soul, Double K and Mix Master Wolf
TTITLE5=Akrobatik
TTITLE6=Pazant Brothers
TTITLE7=Joe Bataan
TTITLE8=Speedometer
TTITLE9=New Mastersounds Feat. Sulene Fleming
TTITLE10=Outlaw Gang
TTITLE11=Mighty Ryeders
TTITLE12=The Rebirth
TTITLE13=Pleasure
TTITLE14=Sandi Havens
TTITLE15=McFadden and Whitehead
TTITLE16=Record Player
TTITLE17=Brass Construction
TTITLE18=7 Miles Per Hour Band
TTITLE19=Kashmere Stage Band
TTITLE20=Fabulous Originals
TTITLE21=Maceo and JB's
TTITLE22=Cut Chemist
TTITLE23=Billy Ball and The Upsetters
TTITLE24=Honey B's
TTITLE25=New World
TTITLE26=NRnest Baker
TTITLE27=Claude "Baby" Huey
TTITLE28=Barbara Trent
EXTD=YEAR: 2006
EXTT0=
EXTT1=
EXTT2=
EXTT3=
EXTT4=
EXTT5=
EXTT6=
EXTT7=
EXTT8=
EXTT9=
EXTT10=
EXTT11=
EXTT12=
EXTT13=
EXTT14=
EXTT15=
EXTT16=
EXTT17=
EXTT18=
EXTT19=
EXTT20=
EXTT21=
EXTT22=
EXTT23=
EXTT24=
EXTT25=
EXTT26=
EXTT27=
EXTT28=
PLAYORDER=
